<svg xmlns="http://www.w3.org/2000/svg" width="1800" height="1180" viewBox="0 0 1800 1180" role="img" aria-labelledby="title desc">
<title id="title">The canvas your AI did not know it needed</title>
<desc id="desc">An illustrated software agent holds a palette and paints connections between evidence, a decision, assumptions and conditions for review on a physical canvas labelled GROUNDING.yaml. Earlier notes remain beside its stool. A conceptual sketch of a shared place for reasoning across conversations.</desc>
<rect width="1800" height="1180" fill="white"/>
<path d="M953.1 1026.3 l16.8 -2" fill="none" stroke="#d9dde1" stroke-width="1" stroke-linecap="round" stroke-linejoin="round" />
<path d="M558.7 1030.8 l9.8 -2" fill="none" stroke="#d9dde1" stroke-width="1" stroke-linecap="round" stroke-linejoin="round" />
<path d="M751.6 1043.3 l6.5 -2" fill="none" stroke="#d9dde1" stroke-width="1" stroke-linecap="round" stroke-linejoin="round" />
<path d="M795.9 1023.1 l9.9 -2" fill="none" stroke="#d9dde1" stroke-width="1" stroke-linecap="round" stroke-linejoin="round" />
<path d="M1638.1 1025.9 l13.5 -2" fill="none" stroke="#d9dde1" stroke-width="1" stroke-linecap="round" stroke-linejoin="round" />
<path d="M757.8 1036.7 l11.3 -2" fill="none" stroke="#d9dde1" stroke-width="1" stroke-linecap="round" stroke-linejoin="round" />
<path d="M379.1 1028.7 l10.7 -2" fill="none" stroke="#d9dde1" stroke-width="1" stroke-linecap="round" stroke-linejoin="round" />
<path d="M1324.9 1032.2 l7.7 -2" fill="none" stroke="#d9dde1" stroke-width="1" stroke-linecap="round" stroke-linejoin="round" />
<path d="M1144.2 1025.1 l12.2 -2" fill="none" stroke="#d9dde1" stroke-width="1" stroke-linecap="round" stroke-linejoin="round" />
<path d="M454.2 1028.1 l16.0 -2" fill="none" stroke="#d9dde1" stroke-width="1" stroke-linecap="round" stroke-linejoin="round" />
<path d="M903.9 1037.3 l15.6 -2" fill="none" stroke="#d9dde1" stroke-width="1" stroke-linecap="round" stroke-linejoin="round" />
<path d="M1012.4 1034.4 l10.6 -2" fill="none" stroke="#d9dde1" stroke-width="1" stroke-linecap="round" stroke-linejoin="round" />
<path d="M1059.3 1038.0 l6.4 -2" fill="none" stroke="#d9dde1" stroke-width="1" stroke-linecap="round" stroke-linejoin="round" />
<path d="M1545.2 1026.9 l6.9 -2" fill="none" stroke="#d9dde1" stroke-width="1" stroke-linecap="round" stroke-linejoin="round" />
<path d="M348.0 1026.2 l6.0 -2" fill="none" stroke="#d9dde1" stroke-width="1" stroke-linecap="round" stroke-linejoin="round" />
<path d="M724.7 1028.2 l14.2 -2" fill="none" stroke="#d9dde1" stroke-width="1" stroke-linecap="round" stroke-linejoin="round" />
<path d="M829.2 1042.3 l14.2 -2" fill="none" stroke="#d9dde1" stroke-width="1" stroke-linecap="round" stroke-linejoin="round" />
<path d="M608.0 1040.6 l14.8 -2" fill="none" stroke="#d9dde1" stroke-width="1" stroke-linecap="round" stroke-linejoin="round" />
<path d="M1590.3 1036.8 l18.5 -2" fill="none" stroke="#d9dde1" stroke-width="1" stroke-linecap="round" stroke-linejoin="round" />
<path d="M431.9 1024.5 l18.6 -2" fill="none" stroke="#d9dde1" stroke-width="1" stroke-linecap="round" stroke-linejoin="round" />
<path d="M153.3 1041.9 l17.7 -2" fill="none" stroke="#d9dde1" stroke-width="1" stroke-linecap="round" stroke-linejoin="round" />
<path d="M326.6 1021.1 l17.8 -2" fill="none" stroke="#d9dde1" stroke-width="1" stroke-linecap="round" stroke-linejoin="round" />
<path d="M1578.8 1040.5 l15.1 -2" fill="none" stroke="#d9dde1" stroke-width="1" stroke-linecap="round" stroke-linejoin="round" />
<path d="M1274.9 1025.3 l5.1 -2" fill="none" stroke="#d9dde1" stroke-width="1" stroke-linecap="round" stroke-linejoin="round" />
<path d="M1074.4 1040.8 l18.3 -2" fill="none" stroke="#d9dde1" stroke-width="1" stroke-linecap="round" stroke-linejoin="round" />
<path d="M902.5 1017.2 l7.4 -2" fill="none" stroke="#d9dde1" stroke-width="1" stroke-linecap="round" stroke-linejoin="round" />
<path d="M802.6 1023.2 l5.4 -2" fill="none" stroke="#d9dde1" stroke-width="1" stroke-linecap="round" stroke-linejoin="round" />
<path d="M412.9 1030.5 l6.8 -2" fill="none" stroke="#d9dde1" stroke-width="1" stroke-linecap="round" stroke-linejoin="round" />
<path d="M291.4 1021.5 l5.5 -2" fill="none" stroke="#d9dde1" stroke-width="1" stroke-linecap="round" stroke-linejoin="round" />
<path d="M1311.0 1040.4 l7.8 -2" fill="none" stroke="#d9dde1" stroke-width="1" stroke-linecap="round" stroke-linejoin="round" />
<path d="M1083.7 1040.7 l8.4 -2" fill="none" stroke="#d9dde1" stroke-width="1" stroke-linecap="round" stroke-linejoin="round" />
<path d="M626.8 1040.8 l15.7 -2" fill="none" stroke="#d9dde1" stroke-width="1" stroke-linecap="round" stroke-linejoin="round" />
<path d="M1064.2 1038.4 l13.0 -2" fill="none" stroke="#d9dde1" stroke-width="1" stroke-linecap="round" stroke-linejoin="round" />
<path d="M598.6 1035.5 l16.0 -2" fill="none" stroke="#d9dde1" stroke-width="1" stroke-linecap="round" stroke-linejoin="round" />
<path d="M204.3 1025.7 l9.1 -2" fill="none" stroke="#d9dde1" stroke-width="1" stroke-linecap="round" stroke-linejoin="round" />
<path d="M1467.3 1024.8 l14.4 -2" fill="none" stroke="#d9dde1" stroke-width="1" stroke-linecap="round" stroke-linejoin="round" />
<path d="M781.0 1027.2 l12.0 -2" fill="none" stroke="#d9dde1" stroke-width="1" stroke-linecap="round" stroke-linejoin="round" />
<path d="M1480.4 1034.8 l10.5 -2" fill="none" stroke="#d9dde1" stroke-width="1" stroke-linecap="round" stroke-linejoin="round" />
<path d="M348.6 1026.3 l11.6 -2" fill="none" stroke="#d9dde1" stroke-width="1" stroke-linecap="round" stroke-linejoin="round" />
<path d="M1102.0 1044.0 l9.5 -2" fill="none" stroke="#d9dde1" stroke-width="1" stroke-linecap="round" stroke-linejoin="round" />
<path d="M1549.0 1041.6 l11.2 -2" fill="none" stroke="#d9dde1" stroke-width="1" stroke-linecap="round" stroke-linejoin="round" />
<path d="M457.7 1023.3 l17.9 -2" fill="none" stroke="#d9dde1" stroke-width="1" stroke-linecap="round" stroke-linejoin="round" />
<path d="M383.9 1034.5 l14.1 -2" fill="none" stroke="#d9dde1" stroke-width="1" stroke-linecap="round" stroke-linejoin="round" />
<path d="M374.2 1017.8 l13.9 -2" fill="none" stroke="#d9dde1" stroke-width="1" stroke-linecap="round" stroke-linejoin="round" />
<path d="M200.5 1031.8 l18.6 -2" fill="none" stroke="#d9dde1" stroke-width="1" stroke-linecap="round" stroke-linejoin="round" />
<path d="M824.8 1025.4 l6.5 -2" fill="none" stroke="#d9dde1" stroke-width="1" stroke-linecap="round" stroke-linejoin="round" />
<path d="M578.9 1025.6 l6.6 -2" fill="none" stroke="#d9dde1" stroke-width="1" stroke-linecap="round" stroke-linejoin="round" />
<path d="M1187.8 1033.3 l15.1 -2" fill="none" stroke="#d9dde1" stroke-width="1" stroke-linecap="round" stroke-linejoin="round" />
<path d="M282.9 1023.8 l18.0 -2" fill="none" stroke="#d9dde1" stroke-width="1" stroke-linecap="round" stroke-linejoin="round" />
<path d="M133.4 1027.0 l16.5 -2" fill="none" stroke="#d9dde1" stroke-width="1" stroke-linecap="round" stroke-linejoin="round" />
<path d="M467.8 1022.9 l13.9 -2" fill="none" stroke="#d9dde1" stroke-width="1" stroke-linecap="round" stroke-linejoin="round" />
<path d="M502.7 1026.1 l10.5 -2" fill="none" stroke="#d9dde1" stroke-width="1" stroke-linecap="round" stroke-linejoin="round" />
<path d="M574.0 1034.8 l15.3 -2" fill="none" stroke="#d9dde1" stroke-width="1" stroke-linecap="round" stroke-linejoin="round" />
<path d="M1276.9 1043.5 l6.0 -2" fill="none" stroke="#d9dde1" stroke-width="1" stroke-linecap="round" stroke-linejoin="round" />
<path d="M510.1 1043.6 l16.2 -2" fill="none" stroke="#d9dde1" stroke-width="1" stroke-linecap="round" stroke-linejoin="round" />
<path d="M1275.9 1023.0 l6.8 -2" fill="none" stroke="#d9dde1" stroke-width="1" stroke-linecap="round" stroke-linejoin="round" />
<path d="M538.5 1041.1 l15.5 -2" fill="none" stroke="#d9dde1" stroke-width="1" stroke-linecap="round" stroke-linejoin="round" />
<path d="M677.8 1034.8 l15.3 -2" fill="none" stroke="#d9dde1" stroke-width="1" stroke-linecap="round" stroke-linejoin="round" />
<path d="M555.6 1019.9 l16.4 -2" fill="none" stroke="#d9dde1" stroke-width="1" stroke-linecap="round" stroke-linejoin="round" />
<path d="M1196.0 1038.8 l15.4 -2" fill="none" stroke="#d9dde1" stroke-width="1" stroke-linecap="round" stroke-linejoin="round" />
<path d="M675.5 1034.7 l10.1 -2" fill="none" stroke="#d9dde1" stroke-width="1" stroke-linecap="round" stroke-linejoin="round" />
<path d="M1493.4 1020.3 l14.8 -2" fill="none" stroke="#d9dde1" stroke-width="1" stroke-linecap="round" stroke-linejoin="round" />
<path d="M646.6 1041.6 l16.3 -2" fill="none" stroke="#d9dde1" stroke-width="1" stroke-linecap="round" stroke-linejoin="round" />
<path d="M385.9 1017.4 l8.3 -2" fill="none" stroke="#d9dde1" stroke-width="1" stroke-linecap="round" stroke-linejoin="round" />
<path d="M1581.1 1037.7 l14.9 -2" fill="none" stroke="#d9dde1" stroke-width="1" stroke-linecap="round" stroke-linejoin="round" />
<path d="M438.2 1022.7 l11.2 -2" fill="none" stroke="#d9dde1" stroke-width="1" stroke-linecap="round" stroke-linejoin="round" />
<path d="M929.7 1033.6 l5.8 -2" fill="none" stroke="#d9dde1" stroke-width="1" stroke-linecap="round" stroke-linejoin="round" />
<path d="M1401.8 1023.6 l15.0 -2" fill="none" stroke="#d9dde1" stroke-width="1" stroke-linecap="round" stroke-linejoin="round" />
<path d="M602.3 1025.0 l17.2 -2" fill="none" stroke="#d9dde1" stroke-width="1" stroke-linecap="round" stroke-linejoin="round" />
<path d="M449.7 1030.6 l17.3 -2" fill="none" stroke="#d9dde1" stroke-width="1" stroke-linecap="round" stroke-linejoin="round" />
<path d="M1378.6 1036.4 l8.4 -2" fill="none" stroke="#d9dde1" stroke-width="1" stroke-linecap="round" stroke-linejoin="round" />
<path d="M1073.5 1029.8 l9.3 -2" fill="none" stroke="#d9dde1" stroke-width="1" stroke-linecap="round" stroke-linejoin="round" />
<path d="M1293.5 1035.2 l17.5 -2" fill="none" stroke="#d9dde1" stroke-width="1" stroke-linecap="round" stroke-linejoin="round" />
<path d="M765.7 1020.9 l8.8 -2" fill="none" stroke="#d9dde1" stroke-width="1" stroke-linecap="round" stroke-linejoin="round" />
<path d="M1244.7 1036.0 l14.0 -2" fill="none" stroke="#d9dde1" stroke-width="1" stroke-linecap="round" stroke-linejoin="round" />
<path d="M723.4 1032.6 l6.0 -2" fill="none" stroke="#d9dde1" stroke-width="1" stroke-linecap="round" stroke-linejoin="round" />
<path d="M257.8 1038.8 l6.6 -2" fill="none" stroke="#d9dde1" stroke-width="1" stroke-linecap="round" stroke-linejoin="round" />
<path d="M1066.8 1025.1 l7.4 -2" fill="none" stroke="#d9dde1" stroke-width="1" stroke-linecap="round" stroke-linejoin="round" />
<path d="M1312.6 1040.9 l9.4 -2" fill="none" stroke="#d9dde1" stroke-width="1" stroke-linecap="round" stroke-linejoin="round" />
<path d="M350.4 1029.4 l6.6 -2" fill="none" stroke="#d9dde1" stroke-width="1" stroke-linecap="round" stroke-linejoin="round" />
<path d="M1579.6 1017.6 l12.1 -2" fill="none" stroke="#d9dde1" stroke-width="1" stroke-linecap="round" stroke-linejoin="round" />
<path d="M367.9 1017.1 l19.0 -2" fill="none" stroke="#d9dde1" stroke-width="1" stroke-linecap="round" stroke-linejoin="round" />
<path d="M1153.8 1036.1 l15.8 -2" fill="none" stroke="#d9dde1" stroke-width="1" stroke-linecap="round" stroke-linejoin="round" />
<path d="M1316.0 1033.4 l14.3 -2" fill="none" stroke="#d9dde1" stroke-width="1" stroke-linecap="round" stroke-linejoin="round" />
<path d="M599.9 1019.8 l15.2 -2" fill="none" stroke="#d9dde1" stroke-width="1" stroke-linecap="round" stroke-linejoin="round" />
<path d="M1237.3 1036.9 l14.1 -2" fill="none" stroke="#d9dde1" stroke-width="1" stroke-linecap="round" stroke-linejoin="round" />
<path d="M248.4 1034.5 l6.2 -2" fill="none" stroke="#d9dde1" stroke-width="1" stroke-linecap="round" stroke-linejoin="round" />
<path d="M1443.3 1017.2 l8.7 -2" fill="none" stroke="#d9dde1" stroke-width="1" stroke-linecap="round" stroke-linejoin="round" />
<path d="M931.1 1040.5 l14.2 -2" fill="none" stroke="#d9dde1" stroke-width="1" stroke-linecap="round" stroke-linejoin="round" />
<path d="M318.8 1036.6 l7.9 -2" fill="none" stroke="#d9dde1" stroke-width="1" stroke-linecap="round" stroke-linejoin="round" />
<path d="M629.8 1026.7 l16.2 -2" fill="none" stroke="#d9dde1" stroke-width="1" stroke-linecap="round" stroke-linejoin="round" />
<path d="M437.6 1025.7 l8.9 -2" fill="none" stroke="#d9dde1" stroke-width="1" stroke-linecap="round" stroke-linejoin="round" />
<path d="M487.4 1022.8 l10.4 -2" fill="none" stroke="#d9dde1" stroke-width="1" stroke-linecap="round" stroke-linejoin="round" />
<path d="M392.3 1024.0 l6.7 -2" fill="none" stroke="#d9dde1" stroke-width="1" stroke-linecap="round" stroke-linejoin="round" />
<path d="M1003.3 1035.8 l8.3 -2" fill="none" stroke="#d9dde1" stroke-width="1" stroke-linecap="round" stroke-linejoin="round" />
<path d="M799.2 1033.2 l18.7 -2" fill="none" stroke="#d9dde1" stroke-width="1" stroke-linecap="round" stroke-linejoin="round" />
<path d="M1588.6 1020.0 l18.2 -2" fill="none" stroke="#d9dde1" stroke-width="1" stroke-linecap="round" stroke-linejoin="round" />
<path d="M1345.6 1023.1 l7.8 -2" fill="none" stroke="#d9dde1" stroke-width="1" stroke-linecap="round" stroke-linejoin="round" />
<path d="M882.4 1024.7 l9.4 -2" fill="none" stroke="#d9dde1" stroke-width="1" stroke-linecap="round" stroke-linejoin="round" />
<path d="M739.5 1031.6 l12.6 -2" fill="none" stroke="#d9dde1" stroke-width="1" stroke-linecap="round" stroke-linejoin="round" />
<path d="M972 151 L1010 157 L916 1042 L864 1049 Z" fill="#f4f3ed" stroke="#15171b" stroke-width="3" stroke-linecap="round" stroke-linejoin="round"/>
<path d="M1400 654 L1430 650 L1580 1033 L1539 1044 Z" fill="#f4f3ed" stroke="#15171b" stroke-width="3" stroke-linecap="round" stroke-linejoin="round"/>
<path d="M1000 913 L1491 934 L1491 960 L995 943 Z" fill="#f4f3ed" stroke="#15171b" stroke-width="3" stroke-linecap="round" stroke-linejoin="round"/>
<path d="M986 185 L885 1024" fill="none" stroke="#7c7b76" stroke-width="1.4" stroke-linecap="round" stroke-linejoin="round" />
<path d="M1418 700 L1556 1024" fill="none" stroke="#7c7b76" stroke-width="1.2" stroke-linecap="round" stroke-linejoin="round" />
<path d="M889 1031 l10.4 -16" fill="none" stroke="#a1a5ab" stroke-width="1.1" stroke-linecap="round" stroke-linejoin="round" />
<path d="M895 1031 l14.3 -22" fill="none" stroke="#a1a5ab" stroke-width="1.1" stroke-linecap="round" stroke-linejoin="round" />
<path d="M901 1031 l18.2 -28" fill="none" stroke="#a1a5ab" stroke-width="1.1" stroke-linecap="round" stroke-linejoin="round" />
<path d="M907 1031 l13.65 -21" fill="none" stroke="#a1a5ab" stroke-width="1.1" stroke-linecap="round" stroke-linejoin="round" />
<path d="M913 1031 l17.55 -27" fill="none" stroke="#a1a5ab" stroke-width="1.1" stroke-linecap="round" stroke-linejoin="round" />
<path d="M919 1031 l13.0 -20" fill="none" stroke="#a1a5ab" stroke-width="1.1" stroke-linecap="round" stroke-linejoin="round" />
<path d="M925 1031 l16.900000000000002 -26" fill="none" stroke="#a1a5ab" stroke-width="1.1" stroke-linecap="round" stroke-linejoin="round" />
<path d="M812 101 L1606 136 L1588 811 L798 777 Z" fill="#fffefb" stroke="#15171b" stroke-width="4" stroke-linecap="round" stroke-linejoin="round"/>
<path d="M822 110 L1598 143 L1580 800 L808 770 Z" fill="none" stroke="#a9a8a3" stroke-width="1.3" stroke-linecap="round" stroke-linejoin="round" />
<path d="M823 157 L1583 182" fill="none" stroke="#f0eee7" stroke-width="0.65" stroke-linecap="round" stroke-linejoin="round" />
<path d="M823 180 L1583 205" fill="none" stroke="#f0eee7" stroke-width="0.65" stroke-linecap="round" stroke-linejoin="round" />
<path d="M823 203 L1583 228" fill="none" stroke="#f0eee7" stroke-width="0.65" stroke-linecap="round" stroke-linejoin="round" />
<path d="M823 226 L1583 251" fill="none" stroke="#f0eee7" stroke-width="0.65" stroke-linecap="round" stroke-linejoin="round" />
<path d="M823 249 L1583 274" fill="none" stroke="#f0eee7" stroke-width="0.65" stroke-linecap="round" stroke-linejoin="round" />
<path d="M823 272 L1583 297" fill="none" stroke="#f0eee7" stroke-width="0.65" stroke-linecap="round" stroke-linejoin="round" />
<path d="M823 295 L1583 320" fill="none" stroke="#f0eee7" stroke-width="0.65" stroke-linecap="round" stroke-linejoin="round" />
<path d="M823 318 L1583 343" fill="none" stroke="#f0eee7" stroke-width="0.65" stroke-linecap="round" stroke-linejoin="round" />
<path d="M823 341 L1583 366" fill="none" stroke="#f0eee7" stroke-width="0.65" stroke-linecap="round" stroke-linejoin="round" />
<path d="M823 364 L1583 389" fill="none" stroke="#f0eee7" stroke-width="0.65" stroke-linecap="round" stroke-linejoin="round" />
<path d="M823 387 L1583 412" fill="none" stroke="#f0eee7" stroke-width="0.65" stroke-linecap="round" stroke-linejoin="round" />
<path d="M823 410 L1583 435" fill="none" stroke="#f0eee7" stroke-width="0.65" stroke-linecap="round" stroke-linejoin="round" />
<path d="M823 433 L1583 458" fill="none" stroke="#f0eee7" stroke-width="0.65" stroke-linecap="round" stroke-linejoin="round" />
<path d="M823 456 L1583 481" fill="none" stroke="#f0eee7" stroke-width="0.65" stroke-linecap="round" stroke-linejoin="round" />
<path d="M823 479 L1583 504" fill="none" stroke="#f0eee7" stroke-width="0.65" stroke-linecap="round" stroke-linejoin="round" />
<path d="M823 502 L1583 527" fill="none" stroke="#f0eee7" stroke-width="0.65" stroke-linecap="round" stroke-linejoin="round" />
<path d="M823 525 L1583 550" fill="none" stroke="#f0eee7" stroke-width="0.65" stroke-linecap="round" stroke-linejoin="round" />
<path d="M823 548 L1583 573" fill="none" stroke="#f0eee7" stroke-width="0.65" stroke-linecap="round" stroke-linejoin="round" />
<path d="M823 571 L1583 596" fill="none" stroke="#f0eee7" stroke-width="0.65" stroke-linecap="round" stroke-linejoin="round" />
<path d="M823 594 L1583 619" fill="none" stroke="#f0eee7" stroke-width="0.65" stroke-linecap="round" stroke-linejoin="round" />
<path d="M823 617 L1583 642" fill="none" stroke="#f0eee7" stroke-width="0.65" stroke-linecap="round" stroke-linejoin="round" />
<path d="M823 640 L1583 665" fill="none" stroke="#f0eee7" stroke-width="0.65" stroke-linecap="round" stroke-linejoin="round" />
<path d="M823 663 L1583 688" fill="none" stroke="#f0eee7" stroke-width="0.65" stroke-linecap="round" stroke-linejoin="round" />
<path d="M823 686 L1583 711" fill="none" stroke="#f0eee7" stroke-width="0.65" stroke-linecap="round" stroke-linejoin="round" />
<path d="M823 709 L1583 734" fill="none" stroke="#f0eee7" stroke-width="0.65" stroke-linecap="round" stroke-linejoin="round" />
<path d="M823 732 L1583 757" fill="none" stroke="#f0eee7" stroke-width="0.65" stroke-linecap="round" stroke-linejoin="round" />
<path d="M823 755 L1583 780" fill="none" stroke="#f0eee7" stroke-width="0.65" stroke-linecap="round" stroke-linejoin="round" />
<path d="M782 786 L1613 821 L1610 852 L777 817 Z" fill="#f0eee5" stroke="#15171b" stroke-width="3" stroke-linecap="round" stroke-linejoin="round"/>
<path d="M807 841 l10.4 -16" fill="none" stroke="#a1a5ab" stroke-width="1.1" stroke-linecap="round" stroke-linejoin="round" />
<path d="M821 841 l11.05 -17" fill="none" stroke="#a1a5ab" stroke-width="1.1" stroke-linecap="round" stroke-linejoin="round" />
<path d="M835 841 l11.700000000000001 -18" fill="none" stroke="#a1a5ab" stroke-width="1.1" stroke-linecap="round" stroke-linejoin="round" />
<path d="M849 841 l12.35 -19" fill="none" stroke="#a1a5ab" stroke-width="1.1" stroke-linecap="round" stroke-linejoin="round" />
<path d="M863 841 l13.0 -20" fill="none" stroke="#a1a5ab" stroke-width="1.1" stroke-linecap="round" stroke-linejoin="round" />
<path d="M877 841 l13.65 -21" fill="none" stroke="#a1a5ab" stroke-width="1.1" stroke-linecap="round" stroke-linejoin="round" />
<path d="M891 841 l14.3 -22" fill="none" stroke="#a1a5ab" stroke-width="1.1" stroke-linecap="round" stroke-linejoin="round" />
<path d="M905 841 l14.950000000000001 -23" fill="none" stroke="#a1a5ab" stroke-width="1.1" stroke-linecap="round" stroke-linejoin="round" />
<path d="M919 841 l15.600000000000001 -24" fill="none" stroke="#a1a5ab" stroke-width="1.1" stroke-linecap="round" stroke-linejoin="round" />
<path d="M933 841 l16.25 -25" fill="none" stroke="#a1a5ab" stroke-width="1.1" stroke-linecap="round" stroke-linejoin="round" />
<path d="M947 841 l16.900000000000002 -26" fill="none" stroke="#a1a5ab" stroke-width="1.1" stroke-linecap="round" stroke-linejoin="round" />
<path d="M961 841 l17.55 -27" fill="none" stroke="#a1a5ab" stroke-width="1.1" stroke-linecap="round" stroke-linejoin="round" />
<path d="M975 841 l18.2 -28" fill="none" stroke="#a1a5ab" stroke-width="1.1" stroke-linecap="round" stroke-linejoin="round" />
<path d="M989 841 l10.4 -16" fill="none" stroke="#a1a5ab" stroke-width="1.1" stroke-linecap="round" stroke-linejoin="round" />
<path d="M1003 841 l11.05 -17" fill="none" stroke="#a1a5ab" stroke-width="1.1" stroke-linecap="round" stroke-linejoin="round" />
<path d="M1017 841 l11.700000000000001 -18" fill="none" stroke="#a1a5ab" stroke-width="1.1" stroke-linecap="round" stroke-linejoin="round" />
<path d="M1031 841 l12.35 -19" fill="none" stroke="#a1a5ab" stroke-width="1.1" stroke-linecap="round" stroke-linejoin="round" />
<path d="M1045 841 l13.0 -20" fill="none" stroke="#a1a5ab" stroke-width="1.1" stroke-linecap="round" stroke-linejoin="round" />
<path d="M1059 841 l13.65 -21" fill="none" stroke="#a1a5ab" stroke-width="1.1" stroke-linecap="round" stroke-linejoin="round" />
<path d="M1073 841 l14.3 -22" fill="none" stroke="#a1a5ab" stroke-width="1.1" stroke-linecap="round" stroke-linejoin="round" />
<path d="M1087 841 l14.950000000000001 -23" fill="none" stroke="#a1a5ab" stroke-width="1.1" stroke-linecap="round" stroke-linejoin="round" />
<path d="M1101 841 l15.600000000000001 -24" fill="none" stroke="#a1a5ab" stroke-width="1.1" stroke-linecap="round" stroke-linejoin="round" />
<path d="M1115 841 l16.25 -25" fill="none" stroke="#a1a5ab" stroke-width="1.1" stroke-linecap="round" stroke-linejoin="round" />
<path d="M1129 841 l16.900000000000002 -26" fill="none" stroke="#a1a5ab" stroke-width="1.1" stroke-linecap="round" stroke-linejoin="round" />
<path d="M1143 841 l17.55 -27" fill="none" stroke="#a1a5ab" stroke-width="1.1" stroke-linecap="round" stroke-linejoin="round" />
<path d="M1157 841 l18.2 -28" fill="none" stroke="#a1a5ab" stroke-width="1.1" stroke-linecap="round" stroke-linejoin="round" />
<path d="M1171 841 l10.4 -16" fill="none" stroke="#a1a5ab" stroke-width="1.1" stroke-linecap="round" stroke-linejoin="round" />
<path d="M1185 841 l11.05 -17" fill="none" stroke="#a1a5ab" stroke-width="1.1" stroke-linecap="round" stroke-linejoin="round" />
<path d="M1199 841 l11.700000000000001 -18" fill="none" stroke="#a1a5ab" stroke-width="1.1" stroke-linecap="round" stroke-linejoin="round" />
<path d="M1213 841 l12.35 -19" fill="none" stroke="#a1a5ab" stroke-width="1.1" stroke-linecap="round" stroke-linejoin="round" />
<path d="M1227 841 l13.0 -20" fill="none" stroke="#a1a5ab" stroke-width="1.1" stroke-linecap="round" stroke-linejoin="round" />
<path d="M1241 841 l13.65 -21" fill="none" stroke="#a1a5ab" stroke-width="1.1" stroke-linecap="round" stroke-linejoin="round" />
<path d="M1255 841 l14.3 -22" fill="none" stroke="#a1a5ab" stroke-width="1.1" stroke-linecap="round" stroke-linejoin="round" />
<path d="M1269 841 l14.950000000000001 -23" fill="none" stroke="#a1a5ab" stroke-width="1.1" stroke-linecap="round" stroke-linejoin="round" />
<path d="M1283 841 l15.600000000000001 -24" fill="none" stroke="#a1a5ab" stroke-width="1.1" stroke-linecap="round" stroke-linejoin="round" />
<path d="M1297 841 l16.25 -25" fill="none" stroke="#a1a5ab" stroke-width="1.1" stroke-linecap="round" stroke-linejoin="round" />
<path d="M1311 841 l16.900000000000002 -26" fill="none" stroke="#a1a5ab" stroke-width="1.1" stroke-linecap="round" stroke-linejoin="round" />
<path d="M1325 841 l17.55 -27" fill="none" stroke="#a1a5ab" stroke-width="1.1" stroke-linecap="round" stroke-linejoin="round" />
<path d="M1339 841 l18.2 -28" fill="none" stroke="#a1a5ab" stroke-width="1.1" stroke-linecap="round" stroke-linejoin="round" />
<path d="M1353 841 l10.4 -16" fill="none" stroke="#a1a5ab" stroke-width="1.1" stroke-linecap="round" stroke-linejoin="round" />
<path d="M1367 841 l11.05 -17" fill="none" stroke="#a1a5ab" stroke-width="1.1" stroke-linecap="round" stroke-linejoin="round" />
<path d="M1381 841 l11.700000000000001 -18" fill="none" stroke="#a1a5ab" stroke-width="1.1" stroke-linecap="round" stroke-linejoin="round" />
<path d="M1395 841 l12.35 -19" fill="none" stroke="#a1a5ab" stroke-width="1.1" stroke-linecap="round" stroke-linejoin="round" />
<path d="M1409 841 l13.0 -20" fill="none" stroke="#a1a5ab" stroke-width="1.1" stroke-linecap="round" stroke-linejoin="round" />
<path d="M1423 841 l13.65 -21" fill="none" stroke="#a1a5ab" stroke-width="1.1" stroke-linecap="round" stroke-linejoin="round" />
<path d="M1437 841 l14.3 -22" fill="none" stroke="#a1a5ab" stroke-width="1.1" stroke-linecap="round" stroke-linejoin="round" />
<path d="M1451 841 l14.950000000000001 -23" fill="none" stroke="#a1a5ab" stroke-width="1.1" stroke-linecap="round" stroke-linejoin="round" />
<path d="M1465 841 l15.600000000000001 -24" fill="none" stroke="#a1a5ab" stroke-width="1.1" stroke-linecap="round" stroke-linejoin="round" />
<path d="M1479 841 l16.25 -25" fill="none" stroke="#a1a5ab" stroke-width="1.1" stroke-linecap="round" stroke-linejoin="round" />
<path d="M1493 841 l16.900000000000002 -26" fill="none" stroke="#a1a5ab" stroke-width="1.1" stroke-linecap="round" stroke-linejoin="round" />
<path d="M1507 841 l17.55 -27" fill="none" stroke="#a1a5ab" stroke-width="1.1" stroke-linecap="round" stroke-linejoin="round" />
<path d="M1521 841 l18.2 -28" fill="none" stroke="#a1a5ab" stroke-width="1.1" stroke-linecap="round" stroke-linejoin="round" />
<path d="M1535 841 l10.4 -16" fill="none" stroke="#a1a5ab" stroke-width="1.1" stroke-linecap="round" stroke-linejoin="round" />
<path d="M1549 841 l11.05 -17" fill="none" stroke="#a1a5ab" stroke-width="1.1" stroke-linecap="round" stroke-linejoin="round" />
<path d="M1563 841 l11.700000000000001 -18" fill="none" stroke="#a1a5ab" stroke-width="1.1" stroke-linecap="round" stroke-linejoin="round" />
<g transform="rotate(-3 984.5 306.5)">
<path d="M864 225 L1105 227 L1108 386 L861 388 Z" fill="white" stroke="#15171b" stroke-width="2.4" stroke-linecap="round" stroke-linejoin="round"/>
<path d="M866 232 L1101 231" fill="none" stroke="#c7cbd0" stroke-width="1" stroke-linecap="round" stroke-linejoin="round" />
<text x="881" y="265" font-family="Arial, Helvetica, sans-serif" font-size="27" font-weight="700" fill="#15171b" text-anchor="start">Evidence</text>
<path d="M882 293 h202" fill="none" stroke="#b7bdc6" stroke-width="2" stroke-linecap="round" stroke-linejoin="round" />
<path d="M882 313 h179" fill="none" stroke="#b7bdc6" stroke-width="2" stroke-linecap="round" stroke-linejoin="round" />
<path d="M882 333 h156" fill="none" stroke="#b7bdc6" stroke-width="2" stroke-linecap="round" stroke-linejoin="round" />
</g>
<g transform="rotate(3 1433.5 294.5)">
<path d="M1320 213 L1547 215 L1550 374 L1317 376 Z" fill="white" stroke="#15171b" stroke-width="2.4" stroke-linecap="round" stroke-linejoin="round"/>
<path d="M1322 220 L1543 219" fill="none" stroke="#c7cbd0" stroke-width="1" stroke-linecap="round" stroke-linejoin="round" />
<text x="1337" y="253" font-family="Arial, Helvetica, sans-serif" font-size="27" font-weight="700" fill="#15171b" text-anchor="start">Assumptions</text>
<path d="M1338 281 h188" fill="none" stroke="#b7bdc6" stroke-width="2" stroke-linecap="round" stroke-linejoin="round" />
<path d="M1338 301 h165" fill="none" stroke="#b7bdc6" stroke-width="2" stroke-linecap="round" stroke-linejoin="round" />
<path d="M1338 321 h142" fill="none" stroke="#b7bdc6" stroke-width="2" stroke-linecap="round" stroke-linejoin="round" />
</g>
<g transform="rotate(-1 1293.0 486.0)">
<path d="M1140 415 L1446 417 L1449 555 L1137 557 Z" fill="white" stroke="#15171b" stroke-width="2.4" stroke-linecap="round" stroke-linejoin="round"/>
<path d="M1142 422 L1442 421" fill="none" stroke="#c7cbd0" stroke-width="1" stroke-linecap="round" stroke-linejoin="round" />
<text x="1157" y="455" font-family="Arial, Helvetica, sans-serif" font-size="27" font-weight="700" fill="#15171b" text-anchor="start">Decision</text>
<path d="M1158 483 h267" fill="none" stroke="#b7bdc6" stroke-width="2" stroke-linecap="round" stroke-linejoin="round" />
<path d="M1158 503 h244" fill="none" stroke="#b7bdc6" stroke-width="2" stroke-linecap="round" stroke-linejoin="round" />
<path d="M1158 523 h221" fill="none" stroke="#b7bdc6" stroke-width="2" stroke-linecap="round" stroke-linejoin="round" />
</g>
<g transform="rotate(1 1232.5 677.0)">
<path d="M1023 626 L1442 628 L1445 726 L1020 728 Z" fill="white" stroke="#15171b" stroke-width="2.4" stroke-linecap="round" stroke-linejoin="round"/>
<path d="M1025 633 L1438 632" fill="none" stroke="#c7cbd0" stroke-width="1" stroke-linecap="round" stroke-linejoin="round" />
<text x="1040" y="666" font-family="Arial, Helvetica, sans-serif" font-size="27" font-weight="700" fill="#15171b" text-anchor="start">What would change it?</text>
<path d="M1041 694 h380" fill="none" stroke="#b7bdc6" stroke-width="2" stroke-linecap="round" stroke-linejoin="round" />
</g>
<path d="M981 393 C977 447 1080 464 1127 468" fill="none" stroke="#0866ff" stroke-width="20" stroke-linecap="round" stroke-linejoin="round" opacity="0.08"/>
<path d="M981 393 C977 447 1080 464 1127 468" fill="none" stroke="#0866ff" stroke-width="6" stroke-linecap="round" stroke-linejoin="round" />
<path d="M1420 385 C1423 399 1400 398 1382 408" fill="none" stroke="#0866ff" stroke-width="20" stroke-linecap="round" stroke-linejoin="round" opacity="0.08"/>
<path d="M1420 385 C1423 399 1400 398 1382 408" fill="none" stroke="#0866ff" stroke-width="6" stroke-linecap="round" stroke-linejoin="round" />
<path d="M1288 570 C1290 598 1243 604 1236 618" fill="none" stroke="#0866ff" stroke-width="20" stroke-linecap="round" stroke-linejoin="round" opacity="0.08"/>
<path d="M1288 570 C1290 598 1243 604 1236 618" fill="none" stroke="#0866ff" stroke-width="6" stroke-linecap="round" stroke-linejoin="round" />
<path d="M1127 468 l-17 -8 l2 16 Z" fill="#0866ff" stroke="#0866ff" stroke-width="1" stroke-linecap="round" stroke-linejoin="round"/>
<path d="M1382 408 l4 -16 l11 11 Z" fill="#0866ff" stroke="#0866ff" stroke-width="1" stroke-linecap="round" stroke-linejoin="round"/>
<path d="M1236 618 l-7 -16 l16 4 Z" fill="#0866ff" stroke="#0866ff" stroke-width="1" stroke-linecap="round" stroke-linejoin="round"/>
<ellipse cx="1505" cy="378" rx="22" ry="22" fill="#fff1d6" stroke="#dc870c" stroke-width="2"/>
<text x="1505" y="387" font-family="Arial, Helvetica, sans-serif" font-size="28" font-weight="700" fill="#dc870c" text-anchor="middle">!</text>
<path d="M1529 372 l18 -9" fill="none" stroke="#dc870c" stroke-width="2" stroke-linecap="round" stroke-linejoin="round" />
<path d="M1527 390 l17 5" fill="none" stroke="#dc870c" stroke-width="2" stroke-linecap="round" stroke-linejoin="round" />
<text x="1210" y="782" font-family="monospace" font-size="27" font-weight="700" fill="#0866ff" text-anchor="middle">GROUNDING.yaml</text>
<g opacity="0.45">
<g transform="rotate(-9 155.0 272.5)">
<path d="M74 223 L236 225 L239 320 L71 322 Z" fill="white" stroke="#15171b" stroke-width="2.4" stroke-linecap="round" stroke-linejoin="round"/>
<path d="M76 230 L232 229" fill="none" stroke="#c7cbd0" stroke-width="1" stroke-linecap="round" stroke-linejoin="round" />
<text x="91" y="263" font-family="Arial, Helvetica, sans-serif" font-size="27" font-weight="700" fill="#15171b" text-anchor="start">Notes</text>
<path d="M92 291 h123" fill="none" stroke="#b7bdc6" stroke-width="2" stroke-linecap="round" stroke-linejoin="round" />
</g>
<path d="M74 361 Q63 361 63 376 L63 425 Q63 439 77 439 L125 439 L144 456 L143 439 L220 439 Q234 439 234 425 L234 376 Q234 361 221 361 Z" fill="white" stroke="#aeb6c0" stroke-width="2" stroke-linecap="round" stroke-linejoin="round"/>
<path d="M88 385 h117" fill="none" stroke="#aeb6c0" stroke-width="3" stroke-linecap="round" stroke-linejoin="round" />
<path d="M88 407 h83" fill="none" stroke="#aeb6c0" stroke-width="3" stroke-linecap="round" stroke-linejoin="round" />
</g>
<path d="M277 785 L305 791 L262 1011 L234 1011 Z" fill="#f5f3ec" stroke="#15171b" stroke-width="3" stroke-linecap="round" stroke-linejoin="round"/>
<path d="M413 786 L440 780 L498 1007 L468 1015 Z" fill="#f5f3ec" stroke="#15171b" stroke-width="3" stroke-linecap="round" stroke-linejoin="round"/>
<ellipse cx="357" cy="787" rx="134" ry="29" fill="#f5f3ec" stroke="#15171b" stroke-width="3"/>
<path d="M251 819 l10.4 -16" fill="none" stroke="#a1a5ab" stroke-width="1.1" stroke-linecap="round" stroke-linejoin="round" />
<path d="M260 819 l14.950000000000001 -23" fill="none" stroke="#a1a5ab" stroke-width="1.1" stroke-linecap="round" stroke-linejoin="round" />
<path d="M269 819 l13.65 -21" fill="none" stroke="#a1a5ab" stroke-width="1.1" stroke-linecap="round" stroke-linejoin="round" />
<path d="M278 819 l11.05 -17" fill="none" stroke="#a1a5ab" stroke-width="1.1" stroke-linecap="round" stroke-linejoin="round" />
<path d="M287 819 l14.950000000000001 -23" fill="none" stroke="#a1a5ab" stroke-width="1.1" stroke-linecap="round" stroke-linejoin="round" />
<path d="M296 819 l14.3 -22" fill="none" stroke="#a1a5ab" stroke-width="1.1" stroke-linecap="round" stroke-linejoin="round" />
<path d="M305 819 l11.700000000000001 -18" fill="none" stroke="#a1a5ab" stroke-width="1.1" stroke-linecap="round" stroke-linejoin="round" />
<path d="M314 819 l14.950000000000001 -23" fill="none" stroke="#a1a5ab" stroke-width="1.1" stroke-linecap="round" stroke-linejoin="round" />
<path d="M323 819 l14.950000000000001 -23" fill="none" stroke="#a1a5ab" stroke-width="1.1" stroke-linecap="round" stroke-linejoin="round" />
<path d="M332 819 l12.35 -19" fill="none" stroke="#a1a5ab" stroke-width="1.1" stroke-linecap="round" stroke-linejoin="round" />
<path d="M341 819 l14.950000000000001 -23" fill="none" stroke="#a1a5ab" stroke-width="1.1" stroke-linecap="round" stroke-linejoin="round" />
<path d="M350 819 l14.950000000000001 -23" fill="none" stroke="#a1a5ab" stroke-width="1.1" stroke-linecap="round" stroke-linejoin="round" />
<path d="M359 819 l13.0 -20" fill="none" stroke="#a1a5ab" stroke-width="1.1" stroke-linecap="round" stroke-linejoin="round" />
<path d="M368 819 l10.4 -16" fill="none" stroke="#a1a5ab" stroke-width="1.1" stroke-linecap="round" stroke-linejoin="round" />
<path d="M377 819 l14.950000000000001 -23" fill="none" stroke="#a1a5ab" stroke-width="1.1" stroke-linecap="round" stroke-linejoin="round" />
<path d="M386 819 l13.65 -21" fill="none" stroke="#a1a5ab" stroke-width="1.1" stroke-linecap="round" stroke-linejoin="round" />
<path d="M395 819 l11.05 -17" fill="none" stroke="#a1a5ab" stroke-width="1.1" stroke-linecap="round" stroke-linejoin="round" />
<path d="M404 819 l14.950000000000001 -23" fill="none" stroke="#a1a5ab" stroke-width="1.1" stroke-linecap="round" stroke-linejoin="round" />
<path d="M413 819 l14.3 -22" fill="none" stroke="#a1a5ab" stroke-width="1.1" stroke-linecap="round" stroke-linejoin="round" />
<path d="M422 819 l11.700000000000001 -18" fill="none" stroke="#a1a5ab" stroke-width="1.1" stroke-linecap="round" stroke-linejoin="round" />
<path d="M431 819 l14.950000000000001 -23" fill="none" stroke="#a1a5ab" stroke-width="1.1" stroke-linecap="round" stroke-linejoin="round" />
<path d="M440 819 l14.950000000000001 -23" fill="none" stroke="#a1a5ab" stroke-width="1.1" stroke-linecap="round" stroke-linejoin="round" />
<path d="M449 819 l12.35 -19" fill="none" stroke="#a1a5ab" stroke-width="1.1" stroke-linecap="round" stroke-linejoin="round" />
<path d="M310 728 C284 775 274 806 281 846 L230 925 L264 947 L335 853 L359 749 Z" fill="#eef0f3" stroke="#15171b" stroke-width="3" stroke-linecap="round" stroke-linejoin="round"/>
<ellipse cx="292" cy="840" rx="20" ry="20" fill="white" stroke="#15171b" stroke-width="3"/>
<path d="M233 920 L270 941 L265 956 Q217 966 186 949 L189 934 Z" fill="white" stroke="#15171b" stroke-width="3" stroke-linecap="round" stroke-linejoin="round"/>
<path d="M396 741 L425 740 L475 834 L522 914 L496 934 L435 861 L384 796 Z" fill="#eef0f3" stroke="#15171b" stroke-width="3" stroke-linecap="round" stroke-linejoin="round"/>
<ellipse cx="468" cy="835" rx="21" ry="21" fill="white" stroke="#15171b" stroke-width="3"/>
<path d="M502 912 L529 902 Q569 916 583 935 L577 951 L514 948 L489 932 Z" fill="white" stroke="#15171b" stroke-width="3" stroke-linecap="round" stroke-linejoin="round"/>
<path d="M283 586 C236 598 229 650 219 700 L250 754" fill="none" stroke="#15171b" stroke-width="31" stroke-linecap="round" stroke-linejoin="round" />
<path d="M283 586 C236 598 229 650 219 700 L250 754" fill="none" stroke="#f2f3f5" stroke-width="24" stroke-linecap="round" stroke-linejoin="round" />
<ellipse cx="223" cy="686" rx="20" ry="20" fill="white" stroke="#15171b" stroke-width="3"/>
<rect x="282" y="543" width="180" height="200" rx="32" fill="#f3f4f6" stroke="#15171b" stroke-width="3.5"/>
<path d="M297 560 C314 551 423 550 447 566" fill="none" stroke="#8e969f" stroke-width="1.1" stroke-linecap="round" stroke-linejoin="round" />
<rect x="310" y="595" width="121" height="93" rx="9" fill="white" stroke="#15171b" stroke-width="2"/>
<text x="371" y="656" font-family="Arial, Helvetica, sans-serif" font-size="56" font-weight="700" fill="#0866ff" text-anchor="middle">k</text>
<ellipse cx="317" cy="712" rx="5" ry="5" fill="#0866ff" stroke="#0866ff" stroke-width="1"/>
<ellipse cx="339" cy="712" rx="5" ry="5" fill="#e1e4e8" stroke="#15171b" stroke-width="1"/>
<rect x="342" y="502" width="51" height="46" rx="9" fill="#eceef0" stroke="#15171b" stroke-width="3"/>
<path d="M248 364 Q248 345 270 345 L449 354 Q470 355 471 377 L465 501 Q465 518 443 518 L262 510 Q241 509 241 490 Z" fill="#f6f7f8" stroke="#15171b" stroke-width="4" stroke-linecap="round" stroke-linejoin="round"/>
<path d="M264 372 L447 379 L442 483 L260 477 Z" fill="white" stroke="#15171b" stroke-width="2.5" stroke-linecap="round" stroke-linejoin="round"/>
<text x="352" y="450" font-family="monospace" font-size="64" font-weight="700" fill="#0866ff" text-anchor="middle">&gt;_</text>
<text x="351" y="501" font-family="monospace" font-size="17" font-weight="400" fill="#717882" text-anchor="middle">agent</text>
<path d="M274 352 l2 -30 L330 325" fill="none" stroke="#15171b" stroke-width="3" stroke-linecap="round" stroke-linejoin="round" />
<ellipse cx="333" cy="325" rx="7" ry="7" fill="#0866ff" stroke="#0866ff" stroke-width="1"/>
<path d="M451 490 l10.4 -16" fill="none" stroke="#a1a5ab" stroke-width="1.1" stroke-linecap="round" stroke-linejoin="round" />
<path d="M456 490 l13.65 -21" fill="none" stroke="#a1a5ab" stroke-width="1.1" stroke-linecap="round" stroke-linejoin="round" />
<path d="M461 490 l16.900000000000002 -26" fill="none" stroke="#a1a5ab" stroke-width="1.1" stroke-linecap="round" stroke-linejoin="round" />
<path d="M451 577 C492 566 522 541 559 533 L753 443" fill="none" stroke="#15171b" stroke-width="32" stroke-linecap="round" stroke-linejoin="round" />
<path d="M451 577 C492 566 522 541 559 533 L753 443" fill="none" stroke="#f2f3f5" stroke-width="24" stroke-linecap="round" stroke-linejoin="round" />
<ellipse cx="555" cy="532" rx="20" ry="20" fill="white" stroke="#15171b" stroke-width="3"/>
<ellipse cx="456" cy="579" rx="25" ry="25" fill="white" stroke="#15171b" stroke-width="3"/>
<path d="M747 440 L771 426 Q786 421 798 434 L802 451 L774 475 L749 468 Z" fill="white" stroke="#15171b" stroke-width="3" stroke-linecap="round" stroke-linejoin="round"/>
<path d="M768 439 L786 453" fill="none" stroke="#15171b" stroke-width="2" stroke-linecap="round" stroke-linejoin="round" />
<path d="M759 449 L778 461" fill="none" stroke="#15171b" stroke-width="2" stroke-linecap="round" stroke-linejoin="round" />
<path d="M777 447 L949 395 L957 409 L784 459 Z" fill="#eee9dc" stroke="#15171b" stroke-width="2.5" stroke-linecap="round" stroke-linejoin="round"/>
<path d="M945 393 L965 386 L972 405 L954 411 Z" fill="#c5cbd3" stroke="#15171b" stroke-width="2" stroke-linecap="round" stroke-linejoin="round"/>
<path d="M965 386 Q986 378 995 381 Q985 389 993 403 Q980 412 972 405 Z" fill="#0866ff" stroke="#15171b" stroke-width="1.8" stroke-linecap="round" stroke-linejoin="round"/>
<path d="M973 389 l14 -4" fill="none" stroke="#a3c6ff" stroke-width="2" stroke-linecap="round" stroke-linejoin="round" />
<g transform="rotate(-18 260 760)">
<ellipse cx="260" cy="760" rx="104" ry="49" fill="#faf8f0" stroke="#15171b" stroke-width="3"/>
<ellipse cx="212" cy="757" rx="20" ry="12" fill="white" stroke="#15171b" stroke-width="2"/>
<ellipse cx="254" cy="739" rx="17" ry="10" fill="#15171b" stroke="#15171b" stroke-width="1"/>
<ellipse cx="293" cy="741" rx="24" ry="14" fill="#0866ff" stroke="#0866ff" stroke-width="1"/>
<ellipse cx="322" cy="767" rx="15" ry="10" fill="#7dadff" stroke="#7dadff" stroke-width="1"/>
<ellipse cx="271" cy="782" rx="15" ry="9" fill="#dc870c" stroke="#dc870c" stroke-width="1"/>
</g>
<g transform="rotate(-7 156.5 939.0)">
<path d="M70 881 L243 883 L246 995 L67 997 Z" fill="white" stroke="#15171b" stroke-width="2.4" stroke-linecap="round" stroke-linejoin="round"/>
<path d="M72 888 L239 887" fill="none" stroke="#c7cbd0" stroke-width="1" stroke-linecap="round" stroke-linejoin="round" />
<text x="87" y="921" font-family="Arial, Helvetica, sans-serif" font-size="27" font-weight="700" fill="#15171b" text-anchor="start">Sources</text>
<path d="M88 949 h134" fill="none" stroke="#b7bdc6" stroke-width="2" stroke-linecap="round" stroke-linejoin="round" />
<path d="M88 969 h111" fill="none" stroke="#b7bdc6" stroke-width="2" stroke-linecap="round" stroke-linejoin="round" />
</g>
<g transform="rotate(3 196.0 971.0)">
<path d="M106 927 L286 929 L289 1013 L103 1015 Z" fill="white" stroke="#15171b" stroke-width="2.4" stroke-linecap="round" stroke-linejoin="round"/>
<path d="M108 934 L282 933" fill="none" stroke="#c7cbd0" stroke-width="1" stroke-linecap="round" stroke-linejoin="round" />
<text x="123" y="967" font-family="Arial, Helvetica, sans-serif" font-size="27" font-weight="700" fill="#15171b" text-anchor="start">Earlier notes</text>
<path d="M124 995 h141" fill="none" stroke="#b7bdc6" stroke-width="2" stroke-linecap="round" stroke-linejoin="round" />
</g>
<path d="M626 937 L762 937 L753 1023 Q689 1048 633 1025 Z" fill="#f7f8fa" stroke="#15171b" stroke-width="3" stroke-linecap="round" stroke-linejoin="round"/>
<ellipse cx="695" cy="937" rx="68" ry="19" fill="#0866ff" stroke="#15171b" stroke-width="3"/>
<path d="M627 949 C603 978 613 1017 629 1015" fill="none" stroke="#15171b" stroke-width="3" stroke-linecap="round" stroke-linejoin="round" />
<rect x="638" y="970" width="111" height="37" rx="3" fill="white" stroke="#15171b" stroke-width="1.5"/>
<text x="693" y="996" font-family="Arial, Helvetica, sans-serif" font-size="22" font-weight="700" fill="#15171b" text-anchor="middle">kpopper</text>
<text x="900" y="1130" font-family="Arial, Helvetica, sans-serif" font-size="49" font-weight="700" fill="#15171b" text-anchor="middle" xml:space="preserve">The <tspan fill="#0866ff">canvas</tspan> your AI didn’t know it needed.</text>
</svg>
